# xmcd
#
# Track frame offsets:
#   150
#   10519
#   23831
#   37085
#   55320
#   61478
#   69816
#   88857
#   98801
#   106449
#   117226
#   124621
#   135826
#   152853
#   173852
#   192218
#
# Disc length: 2714 seconds
#
# Revision: 0
# Processed by: cddbd v1.5.2PL0 Copyright (c) Steve Scherf et al.
# Submitted via: GXTranscoder 2.0.1939
#
DISCID=cd0a9810
DTITLE=Jack London - Der Ruf der Wildnis
DYEAR=1900
DGENRE=Blues
TTITLE0=Die Schrecken des langen Pfades
TTITLE1=Drei Tage vergingen
TTITLE2=Glaubt ihr, dass ihr damit weiter kommt
TTITLE3=Widersinnig, etwas beschämt
TTITLE4=Spät am nächsten Morgen
TTITLE5=Kommende Hungertage
TTITLE6=Der Norden
TTITLE7=In all` diesem Elend
TTITLE8=Es war Frühling geworden
TTITLE9=Der Schlitten blieb stehen
TTITLE10=Al gab seinen Widerstand auf
TTITLE11=Um die Liebe eines Menschen
TTITLE12=Dieser Mann hatte sein Leben gerettet
TTITLE13=Buck war älter
TTITLE14=Später im Herbst
TTITLE15=Im Winter
EXTD=
EXTT0=
EXTT1=
EXTT2=
EXTT3=
EXTT4=
EXTT5=
EXTT6=
EXTT7=
EXTT8=
EXTT9=
EXTT10=
EXTT11=
EXTT12=
EXTT13=
EXTT14=
EXTT15=
PLAYORDER=
